<svg width="296" height="74" viewBox="0 0 296 74" fill="none" xmlns="http://www.w3.org/2000/svg">
<path d="M15.8569 36.2991C18.1545 37.5165 19.5104 39.73 19.5104 42.4968C19.5104 46.6287 15.7816 49.9489 11.1865 49.9489H0V24.1249H10.8851C15.4426 24.1249 18.8324 26.9655 18.8324 30.7653C18.8324 32.9788 17.7025 35.0448 15.8569 36.2991ZM13.2957 31.6138C13.2957 29.9906 12.1281 28.8839 10.3578 28.8839H5.5744V34.3807H10.3578C12.1281 34.3807 13.2957 33.2371 13.2957 31.6138ZM10.6592 44.821C12.5424 44.821 13.7853 43.6036 13.7853 41.9066C13.7853 40.2464 12.5424 39.029 10.6592 39.029H5.5744V44.821H10.6592Z" fill="url(#paint0_linear_469_2440)"/>
<path d="M41.0538 49.912L39.2082 45.0423H28.7374L26.9295 49.912H20.8654L31.2233 24.088H36.6093L47.2685 49.912H41.0538ZM33.9728 30.9129L30.5076 40.1727H37.438L33.9728 30.9129Z" fill="url(#paint1_linear_469_2440)"/>
<path d="M57.1658 44.7472H68.5029V49.912H48.5782V49.1004L59.5764 29.2897H49.1809V24.088H68.051V25.1209L57.1658 44.7472Z" fill="url(#paint2_linear_469_2440)"/>
<path d="M90.0475 49.912L88.202 45.0423H77.7311L75.9232 49.912H69.8592L80.217 24.088H85.6031L96.2622 49.912H90.0475ZM82.9665 30.9129L79.5014 40.1727H86.4317L82.9665 30.9129Z" fill="url(#paint3_linear_469_2440)"/>
<path d="M148.886 0.127727C143.622 0.618535 138.756 2.24975 134.436 4.9925C133.064 5.85863 130.823 7.51872 130.646 7.80743C130.587 7.90847 130.027 8.38485 129.422 8.87566C127.741 10.2037 127.712 10.3625 129.348 9.29428C132.224 7.41766 135.512 6.07516 138.992 5.35339C140.688 4.9925 141.145 4.96363 144.241 4.94919C147.249 4.94919 147.825 4.9925 149.329 5.29565C160.034 7.44654 168.439 15.1695 171.506 25.6786C172.228 28.176 172.154 28.2193 170.857 25.9529C168.675 22.1996 168.07 21.2469 167.185 20.0632C160.255 10.9111 148.547 6.14734 137.105 7.83629C126.311 9.4242 117.066 16.2811 112.686 25.9673C111.02 29.6628 110.15 33.3583 110.002 37.5013C109.604 48.4146 114.854 58.3895 124.232 64.5391C126.694 66.1703 130.956 67.9747 134.878 69.0718C134.996 69.1007 134.303 68.7253 133.33 68.2201C131.265 67.1519 130.631 66.7621 129.127 65.6506C124.94 62.5181 121.681 58.0575 120 53.135C116.8 43.723 118.997 33.4161 125.869 25.6209C126.621 24.7692 127.299 24.033 127.387 23.9897C127.594 23.8597 127.579 23.8742 126.281 25.8085C124.04 29.1287 122.285 33.3727 121.519 37.3425C120.988 40.0564 120.87 43.9829 121.238 46.74C122.698 58.0142 130.336 67.7293 140.924 71.7712C144.64 73.1859 147.839 73.85 151.614 73.9799C162.717 74.3697 173.216 69.0718 179.277 60.0207C181.842 56.1953 183.553 51.7059 184.202 47.1009C184.585 44.3871 184.467 40.1574 183.907 36.9961L183.464 34.542L183.376 37.357C183.287 39.9409 183.096 41.4999 182.653 43.16C179.896 53.6402 171.27 61.2622 160.019 63.1388C157.851 63.4997 154.018 63.5719 151.732 63.2832C149.815 63.0378 147.028 62.4603 146.542 62.2005C146.394 62.1139 147.898 62.0706 150.508 62.085C155.05 62.1139 155.935 62.0417 158.987 61.3199C165.077 59.8908 170.031 57.1192 174.396 52.7164C176.962 50.1324 178.584 47.8516 180.235 44.5025C181.4 42.1495 182.27 39.6089 182.742 37.0827C182.948 36 183.169 34.9173 183.243 34.6864C183.464 33.9935 183.317 28.2337 183.037 26.6025C181.68 18.3309 177.537 11.4163 170.975 6.46492C164.782 1.77338 156.554 -0.59405 148.886 0.127727ZM160.329 3.59225C168.114 6.19065 174.558 11.705 178.097 18.8073C182.181 27.0067 182.152 36.4619 178.008 44.6469C175.516 49.5838 171.904 53.6114 167.171 56.6861C165.902 57.5234 164.045 58.5772 163.853 58.5772C163.794 58.5772 164.531 58.0575 165.49 57.4368C174.219 51.7636 179.321 41.7887 178.923 31.2219C178.731 26.4293 177.773 22.6616 175.649 18.3742C174.012 15.0685 172.449 12.9032 169.854 10.3048C166.89 7.34549 163.558 5.12242 159.872 3.64999C158.618 3.14475 158.323 3.0004 158.5 3.0004C158.544 3.0004 159.37 3.26023 160.329 3.59225ZM151.791 3.66443C151.747 3.70774 151.614 3.72217 151.511 3.67886C151.393 3.63555 151.437 3.59225 151.599 3.59225C151.762 3.57782 151.85 3.62112 151.791 3.66443ZM153.752 4.01088C164.546 6.52267 173.083 14.6643 175.87 25.1012C176.667 28.1038 176.814 29.3452 176.814 32.8098C176.814 36.1732 176.681 37.1982 175.929 40.1719C173.835 48.2991 167.834 55.5024 160.166 59.068C158.338 59.9197 157.851 60.0352 159.282 59.2556C164.797 56.3108 168.822 52.1678 171.535 46.6679C173.629 42.395 174.573 38.2953 174.558 33.3872C174.558 26.1405 172.376 19.8034 167.923 14.0436C166.817 12.6145 163.941 9.8284 162.423 8.68799C159.4 6.46492 155.522 4.61717 152.204 3.82322L151.909 3.75104L152.204 3.7366C152.366 3.7366 153.059 3.85209 153.752 4.01088ZM145.509 9.49638C147.721 9.72735 150.464 10.2903 152.499 10.9544C154.239 11.5174 158.633 13.5528 159.355 14.1158C159.562 14.2745 158.898 14.0147 157.881 13.5528C153.192 11.373 149.063 10.5357 143.74 10.6945C139.995 10.81 136.913 11.4163 133.448 12.7444C126.93 15.2417 121.238 19.9188 117.611 25.7652C115.252 29.5762 113.659 34.21 113.202 38.6417C112.952 41.0813 113.011 42.8713 113.423 46.2348C113.482 46.7689 113.482 46.7834 113.35 46.3792C112.568 44.055 112.229 38.6128 112.671 35.2349C114.146 23.8742 121.784 14.621 132.681 10.9544C136.765 9.59743 141.248 9.07775 145.509 9.49638ZM149.432 12.6C153.959 13.1774 158.235 14.7509 161.877 17.1472C163.971 18.5186 164.811 19.2692 162.939 18.0855C160.107 16.2955 156.952 15.0541 153.457 14.3323C151.201 13.8703 146.881 13.6827 144.522 13.957C135.601 14.9819 127.564 19.6157 122.167 26.819C116.844 33.9357 115.001 43.1312 117.257 51.3594C117.626 52.7452 117.36 52.2977 116.83 50.6665C111.507 34.1956 121.799 16.8296 139.154 13.0331C142.162 12.3691 146.291 12.2103 149.432 12.6ZM151.216 15.5593C159.518 16.4254 166.625 20.5107 171.167 26.9922C172.331 28.6668 172.464 29.1864 172.582 32.8098C172.641 34.9318 172.612 35.9856 172.42 37.458C171.447 44.9067 167.672 51.5759 161.847 56.1809C158.176 59.068 153.384 61.0601 148.65 61.6808C145.716 62.0706 145.288 61.9984 142.236 60.5693C134.273 56.8594 128.361 49.9014 126.267 41.7598C125.588 39.1325 125.397 37.2703 125.485 34.3977C125.603 30.4712 126.281 27.5119 127.8 24.2928C128.405 22.9936 128.98 22.4162 131.236 20.8571C137.06 16.8152 144.433 14.852 151.216 15.5593ZM124.512 32.4777C124.468 32.5932 124.424 32.5499 124.424 32.3911C124.409 32.2323 124.453 32.1457 124.497 32.2035C124.541 32.2468 124.556 32.3767 124.512 32.4777ZM124.291 35.7402C124.217 39.0459 124.424 40.7782 125.205 43.5931C128.302 54.6507 138.181 63.1099 150.479 65.2464C152.956 65.665 158.146 65.7083 160.461 65.3186C166.374 64.3081 171.668 61.854 175.398 58.3751C175.9 57.9131 176.313 57.5811 176.313 57.6677C176.313 57.8698 173.319 60.6992 172.258 61.4787C167.982 64.669 162.835 66.7188 157.439 67.3829C155.64 67.5994 151.968 67.5561 150.036 67.3107C143.357 66.4445 137.223 63.4708 132.489 58.7648C129.938 56.2531 128.405 54.131 126.827 50.9985C124.659 46.6823 123.701 42.2939 123.863 37.4291C123.922 35.5958 124.188 32.8819 124.32 32.8819C124.335 32.8819 124.32 34.1667 124.291 35.7402ZM122.595 37.8911C122.551 38.0354 122.521 37.9488 122.521 37.7178C122.521 37.4724 122.551 37.3714 122.595 37.458C122.625 37.559 122.625 37.7611 122.595 37.8911ZM122.639 41.8608C123.362 50.7964 128.228 58.9525 135.984 64.2359C139.361 66.5312 143.799 68.3789 147.883 69.1729C150.656 69.7214 152.632 69.8802 155.374 69.7936C161.464 69.577 166.743 67.9025 171.815 64.5535C173.393 63.4997 173.423 63.4997 172.626 64.207C171.565 65.1598 169.574 66.5456 167.878 67.4983C164.31 69.5337 160.107 70.9196 155.964 71.4104C154.165 71.6413 150.493 71.598 148.547 71.3526C137.134 69.8946 127.609 62.085 123.966 51.2439C122.743 47.5917 122.33 44.95 122.374 41.038C122.389 39.6811 122.418 38.8727 122.448 39.2336C122.462 39.5945 122.551 40.7782 122.639 41.8608Z" fill="url(#paint4_linear_469_2440)"/>
<path d="M209.47 50.4285C203.406 50.4285 199.225 47.1083 199.225 41.5745H204.988C204.988 44.0463 207.097 45.2637 209.432 45.2637C211.579 45.2637 213.688 44.1569 213.688 42.2386C213.688 40.2096 211.278 39.6562 208.415 39.029C204.423 38.0698 199.602 36.9262 199.602 31.3556C199.602 26.4121 203.33 23.6084 209.168 23.6084C215.232 23.6084 218.66 26.781 218.66 31.9459H213.048C213.048 29.6955 211.165 28.6625 209.018 28.6625C207.172 28.6625 205.327 29.4372 205.327 31.1342C205.327 32.9419 207.586 33.4953 210.411 34.1594C214.404 35.1554 219.451 36.3728 219.451 42.1648C219.451 47.7354 214.931 50.4285 209.47 50.4285Z" fill="url(#paint5_linear_469_2440)"/>
<path d="M246.01 49.912H239.042L229.739 37.332V49.912H224.051V24.088H229.739V36.0408L238.402 24.088H245.031L236.066 36.4835L246.01 49.912Z" fill="url(#paint6_linear_469_2440)"/>
<path d="M248.769 49.912V24.088H254.456V49.912H248.769Z" fill="url(#paint7_linear_469_2440)"/>
<path d="M266.19 44.7472H276.322V49.912H260.502V24.088H266.19V44.7472Z" fill="url(#paint8_linear_469_2440)"/>
<path d="M285.868 44.7472H296V49.912H280.181V24.088H285.868V44.7472Z" fill="url(#paint9_linear_469_2440)"/>
<defs>
<linearGradient id="paint0_linear_469_2440" x1="-1.04424e-07" y1="24.975" x2="295.968" y2="50.3261" gradientUnits="userSpaceOnUse">
<stop stop-color="#5BFF75"/>
<stop offset="0.98809" stop-color="#FFF854"/>
</linearGradient>
<linearGradient id="paint1_linear_469_2440" x1="-1.04424e-07" y1="24.975" x2="295.968" y2="50.3261" gradientUnits="userSpaceOnUse">
<stop stop-color="#5BFF75"/>
<stop offset="0.98809" stop-color="#FFF854"/>
</linearGradient>
<linearGradient id="paint2_linear_469_2440" x1="-1.04424e-07" y1="24.975" x2="295.968" y2="50.3261" gradientUnits="userSpaceOnUse">
<stop stop-color="#5BFF75"/>
<stop offset="0.98809" stop-color="#FFF854"/>
</linearGradient>
<linearGradient id="paint3_linear_469_2440" x1="-1.04424e-07" y1="24.975" x2="295.968" y2="50.3261" gradientUnits="userSpaceOnUse">
<stop stop-color="#5BFF75"/>
<stop offset="0.98809" stop-color="#FFF854"/>
</linearGradient>
<linearGradient id="paint4_linear_469_2440" x1="-1.04424e-07" y1="24.975" x2="295.968" y2="50.3261" gradientUnits="userSpaceOnUse">
<stop stop-color="#5BFF75"/>
<stop offset="0.98809" stop-color="#FFF854"/>
</linearGradient>
<linearGradient id="paint5_linear_469_2440" x1="-1.04424e-07" y1="24.975" x2="295.968" y2="50.3261" gradientUnits="userSpaceOnUse">
<stop stop-color="#5BFF75"/>
<stop offset="0.98809" stop-color="#FFF854"/>
</linearGradient>
<linearGradient id="paint6_linear_469_2440" x1="-1.04424e-07" y1="24.975" x2="295.968" y2="50.3261" gradientUnits="userSpaceOnUse">
<stop stop-color="#5BFF75"/>
<stop offset="0.98809" stop-color="#FFF854"/>
</linearGradient>
<linearGradient id="paint7_linear_469_2440" x1="-1.04424e-07" y1="24.975" x2="295.968" y2="50.3261" gradientUnits="userSpaceOnUse">
<stop stop-color="#5BFF75"/>
<stop offset="0.98809" stop-color="#FFF854"/>
</linearGradient>
<linearGradient id="paint8_linear_469_2440" x1="-1.04424e-07" y1="24.975" x2="295.968" y2="50.3261" gradientUnits="userSpaceOnUse">
<stop stop-color="#5BFF75"/>
<stop offset="0.98809" stop-color="#FFF854"/>
</linearGradient>
<linearGradient id="paint9_linear_469_2440" x1="-1.04424e-07" y1="24.975" x2="295.968" y2="50.3261" gradientUnits="userSpaceOnUse">
<stop stop-color="#5BFF75"/>
<stop offset="0.98809" stop-color="#FFF854"/>
</linearGradient>
</defs>
</svg>
